<svg id="head_Bun" data-name="head/Bun" xmlns="http://www.w3.org/2000/svg" width="83.412" height="92.26" viewBox="0 0 83.412 92.26">
  <path id="_Skin" data-name="âœ‹ Skin" d="M17.3.057c25.823-1.27,43.344,19.095,44.1,27.215.523,5.637.168,13.155.168,18.192,0,2.571,1.3,10.387-.168,14.134-3.262,8.341-6.947,14.875-17.159,14.875S18.463,69.18,13.117,62.354c-.976-1.246-13.1-10.37-13.1-17.541C.014,29.513-1.123.963,17.3.057Z" transform="translate(19.409 16.617)" fill="#d08b5b"/>
  <path id="_Ink" data-name="ðŸ– Ink" d="M61.891,92.26a20.174,20.174,0,0,1-5.211-.694l-.217-.059a20.2,20.2,0,0,1-3.038-1.065A11.258,11.258,0,0,1,52,89.672a7.435,7.435,0,0,1-1.222-.972,1.051,1.051,0,0,1-.3-.619,1.34,1.34,0,0,1,.1-.678,1.059,1.059,0,0,1,.949-.714,1.025,1.025,0,0,1,.379.076,17.763,17.763,0,0,1,1.676.807c.493.259,1,.527,1.529.747a18.617,18.617,0,0,0,7.049,1.4,17.732,17.732,0,0,0,2.409-.163,16.424,16.424,0,0,0,5.37-1.714,17.478,17.478,0,0,0,4.447-3.317,18.3,18.3,0,0,0,3.233-4.532,18.066,18.066,0,0,0,1.73-5.361,38.139,38.139,0,0,0,.3-6.311l-.024-2.308c-.017-1.747-.029-3.78.045-5.794.086-2.363.25-4.8.5-7.44l.123-1.287c.133-1.373.3-2.968.591-4.509h0c-.223,0-1.857-2.769-3.066-4.852a2.12,2.12,0,0,1-.8-1.128,1.74,1.74,0,0,1-.046-.3c-.222-.348-.456-.687-.7-1.008l-.053-.024c-.041-.019-.073-.034-.092-.045a3.346,3.346,0,0,1-.728-.561,3.574,3.574,0,0,1-.557-.732,3.465,3.465,0,0,1-.256-.558,18.08,18.08,0,0,0-1.369-1.217l-.081-.062-.062-.048a3.439,3.439,0,0,1-1.533-1.063c-.161-.1-.327-.2-.492-.3a4.013,4.013,0,0,1-1.486-.321,7.019,7.019,0,0,1-1.209-.7,6.468,6.468,0,0,0-1.294-.729,1.477,1.477,0,0,0-.527-.091,4,4,0,0,0-1.064.2l-.012,0a4.057,4.057,0,0,1-1.1.208,1.79,1.79,0,0,1-.254-.018,2.591,2.591,0,0,1-.749-.229,14.319,14.319,0,0,1-1.834,1.664,8.954,8.954,0,0,1-3.066,1.374,3.464,3.464,0,0,1-1.921,1.109A39.113,39.113,0,0,1,51.005,41.2a1.91,1.91,0,0,1-.92.255,7.812,7.812,0,0,1-1.981.882,1.63,1.63,0,0,1-.454.063,1.8,1.8,0,0,1-.218-.013l-.611.5a2.175,2.175,0,0,1-1.313.522c-.253.194-.521.382-.819.577a1.734,1.734,0,0,1-.954.259c-.044,0-.088,0-.132,0a1.8,1.8,0,0,1-1.276.533,1.965,1.965,0,0,1-.756-.154c-.1.058-.191.106-.285.151a3.177,3.177,0,0,1-.437.168A3.23,3.23,0,0,1,38.49,45.97a3.149,3.149,0,0,1-.315-.016,4.479,4.479,0,0,1-1.076.479,4.071,4.071,0,0,1-1.147.169c-.079,0-.158,0-.236-.007-.124.623-.231,1.262-.327,1.955l-.009.479c0,.081,0,.14,0,.178v.016c.042,1.065.075,2.148.107,3.2v0c.031,1.017.063,2.068.1,3.1l.008.166c.008.15.018.31.028.478v0c.084,1.338.2,3.17-.65,4.073a1.662,1.662,0,0,1-.6.407,2.274,2.274,0,0,1-.848.149h-.086a3.228,3.228,0,0,1-1.476-.47,10.744,10.744,0,0,1-1.309-.906l-.11-.086-.183-.143c-.208-.027-.418-.063-.621-.1a8.641,8.641,0,0,0-1.132-.142c-.093,0-.188,0-.282,0a8.624,8.624,0,0,0-1.924.22,5.67,5.67,0,0,0-3.285,1.9c-.063.079-.127.168-.2.281a1.484,1.484,0,0,1-.288.533,5.455,5.455,0,0,0-.347,2.87A8,8,0,0,0,25.113,69.9a8.228,8.228,0,0,0,2.707,1.47l.1.032a4.632,4.632,0,0,1,2.644,2.4l.024.036a24.4,24.4,0,0,0,2.383,3.08c.525.585,1.128,1.148,1.711,1.694a12.491,12.491,0,0,1,3.308,4.094.52.52,0,0,1-.056.5.75.75,0,0,1-.6.324.565.565,0,0,1-.152-.02,6.535,6.535,0,0,1-2.18-1.124,19.843,19.843,0,0,1-1.84-1.652l0,0-.144-.14c-.923-.9-1.732-1.762-2.472-2.635a1.774,1.774,0,0,1-.53.149,5.737,5.737,0,0,1-.7.045,3.157,3.157,0,0,1-1.7-.432c-.035,0-.07,0-.105,0a1.249,1.249,0,0,1-.833-.326,4.157,4.157,0,0,1-.613-.7c-.143.013-.266.019-.378.019a2.346,2.346,0,0,1-.387-.029.979.979,0,0,1-.338-.093,1.484,1.484,0,0,1-.55-.379,1.568,1.568,0,0,1-.359-.647A1.864,1.864,0,0,1,24,74.828a1.761,1.761,0,0,1-.2-.055,1.826,1.826,0,0,1-1.037-.883,3.878,3.878,0,0,1-1.042-.859,3.737,3.737,0,0,1-.736-1.338,3.187,3.187,0,0,1-.445-.251A3.11,3.11,0,0,1,19.4,70.037a2.57,2.57,0,0,1-.069-1.788l.014-.038c.02-.052.057-.145.1-.25v-.016c-.006-.078-.012-.158-.017-.238l-.014-.256-.2-.087a3.422,3.422,0,0,1-1.255-.774,2.189,2.189,0,0,1-.581-1.332,1.011,1.011,0,0,1,.212-.683v-.064c-.072-.037-.134-.072-.185-.105a1.889,1.889,0,0,1-.654-.713,1.8,1.8,0,0,1-.207-.941,2.635,2.635,0,0,1,.743-1.524l.107-.124.02-.022.01-.011-.248-.078a2.354,2.354,0,0,1-.414-.161,2.407,2.407,0,0,1-.971-.934l-.015-.024c-.026-.04-.052-.082-.076-.125a2.2,2.2,0,0,1-.134-1.692,1.677,1.677,0,0,1,.076-.184,2.15,2.15,0,0,1-.958-.633,2.15,2.15,0,0,1-.2-2.325,2.368,2.368,0,0,1-.023-.7,1.9,1.9,0,0,1-.563-.92,1.706,1.706,0,0,1,.066-1.015,3.446,3.446,0,0,1,.552-.948,2.066,2.066,0,0,1,.016-1.5,2.562,2.562,0,0,1-.123-.757,2.5,2.5,0,0,1,.121-.8,2.57,2.57,0,0,1,.341-.674,2.061,2.061,0,0,1-.421-.839,1.569,1.569,0,0,1,.063-.93,7.734,7.734,0,0,1,.589-1.21,2.463,2.463,0,0,1-.186-.953,2.263,2.263,0,0,1,.165-.862,2.453,2.453,0,0,1,.439-.694,2.044,2.044,0,0,1,.11-1.161,1.564,1.564,0,0,1,.756-.845,5.956,5.956,0,0,1,1.01-.358c.155-.485.306-.932.462-1.368.246-.689.522-1.4.819-2.112a5.557,5.557,0,0,1-.524.406,7.533,7.533,0,0,1-1.972,1.738,2.532,2.532,0,0,1-1.283.365,2.232,2.232,0,0,1-1.192-.343,2.413,2.413,0,0,1-.865-.971,2.939,2.939,0,0,1-1.75.627,2.522,2.522,0,0,1-.294-.017A2.312,2.312,0,0,1,9.63,37.6a1.9,1.9,0,0,1-.683-1.043,1.763,1.763,0,0,1-.051-.395,5.952,5.952,0,0,1-1.562.852A1.08,1.08,0,0,1,7,37.069,1.189,1.189,0,0,1,6.2,36.75a1.26,1.26,0,0,1-.409-.76,1.181,1.181,0,0,1,.125-.728l-.07-.027-.034-.015a1.577,1.577,0,0,1-.8-.869,1.618,1.618,0,0,1-.586.111,1.481,1.481,0,0,1-.869-.273,1.442,1.442,0,0,1-.545-.784,6.222,6.222,0,0,1-.085-3.17,3.647,3.647,0,0,1-1.045-1.21,3.952,3.952,0,0,1-.021-3.755,1.327,1.327,0,0,1-.764-.781,1.692,1.692,0,0,1,.057-1.358A1.818,1.818,0,0,1,.3,21.6a1.315,1.315,0,0,1-.214-.59,1.526,1.526,0,0,1,.1-.706A3.152,3.152,0,0,1,.732,19.4a4.727,4.727,0,0,1,.8-.738,5.306,5.306,0,0,1-.563-1.43,1.322,1.322,0,0,1-.956-1.123,1.371,1.371,0,0,1,.237-.98,1.407,1.407,0,0,1,.8-.55,4.3,4.3,0,0,1,.271-.656,2.866,2.866,0,0,1-.207-1.26,3.377,3.377,0,0,1,.349-1.314,2.856,2.856,0,0,1,.715-.914,3.824,3.824,0,0,1,.981-.593,1.578,1.578,0,0,1,.673-1.728A8.987,8.987,0,0,1,6.266,6.792,2.793,2.793,0,0,1,6.54,5.324a1.943,1.943,0,0,1,1.092-.967,2.447,2.447,0,0,1,.826-.13h.014A2.948,2.948,0,0,1,9.481,3.081a1.408,1.408,0,0,1,.828-.24,1.706,1.706,0,0,1,1.521.821l.019.04c.012.027.024.052.036.077v0l.023.047a2.018,2.018,0,0,1,.544-1.02,2.222,2.222,0,0,1,.67-.477,1.672,1.672,0,0,1,.681-.144,2.218,2.218,0,0,1,.862.192,4.946,4.946,0,0,1,.494-.939,2.227,2.227,0,0,1,.775-.717,1.878,1.878,0,0,1,.9-.231A1.99,1.99,0,0,1,17.93.825,3.239,3.239,0,0,1,19.1.149,3.042,3.042,0,0,1,20,0a2.566,2.566,0,0,1,2.179,1.377,1.027,1.027,0,0,1,.2-.02,1.061,1.061,0,0,1,.251.031c.045.011.16.055.207.074a1.074,1.074,0,0,1,.154.082l.029-.015a2.231,2.231,0,0,1,.352-.319,1.166,1.166,0,0,1,.681-.228,1.129,1.129,0,0,1,.165.012l.127-.047A3.232,3.232,0,0,1,25.405.76a2.543,2.543,0,0,1,1.063.222,2.365,2.365,0,0,1,.883.7,2.957,2.957,0,0,1,.357.6,2.245,2.245,0,0,1,.608.307,2.25,2.25,0,0,1,.4-.146,2.6,2.6,0,0,1,.646-.081,2.777,2.777,0,0,1,1.656.562,2.533,2.533,0,0,1,.731.883,2.016,2.016,0,0,1,.59.248,3.3,3.3,0,0,1,.493-.207,5.169,5.169,0,0,1,1.519-.225c.13,0,.262,0,.391.014a2.286,2.286,0,0,1,1.123.412,2.38,2.38,0,0,1,.786.9,1.655,1.655,0,0,1-.123,1.711L36.5,6.7a4.948,4.948,0,0,0-.312.5,4.007,4.007,0,0,1,.939.575,3.628,3.628,0,0,1,.845.989,4.02,4.02,0,0,1,.441,1.158,6.884,6.884,0,0,1,.009,2.547l-.011.071h0a1.284,1.284,0,0,1,1.01.675.945.945,0,0,1-.04.941l-.022.035c-.377.583-.728,1.215-1.067,1.827-.209.377-.425.766-.646,1.143a27.159,27.159,0,0,0-4.625,2.162,21.191,21.191,0,0,0-2.54,2.579,14.764,14.764,0,0,0-1.052,1.479.769.769,0,0,0,.335.079.743.743,0,0,0,.509-.21,23,23,0,0,1,8.346-4.807.751.751,0,0,0,.448-.384,33.72,33.72,0,0,1,4.154-.9c.193-.184.395-.368.59-.545h0c.194-.176.394-.358.585-.541a1.236,1.236,0,0,1,1.566-.167c.22-.1.448-.191.7-.279l.147-.05.078-.027c.033-.012.068-.024.1-.035a6.885,6.885,0,0,1,2.042-.3,10.824,10.824,0,0,1,2.725.4l.207.054a3.584,3.584,0,0,0,.932.137,4.111,4.111,0,0,0,1.028-.153l.082-.021a6.381,6.381,0,0,1,1.571-.243,3.154,3.154,0,0,1,.829.1A4.127,4.127,0,0,1,58.354,16.8l.057.06a.775.775,0,0,0,.687.307h.075l.37-.011c.2-.005.364-.008.518-.008a6.284,6.284,0,0,1,1.757.2,3.359,3.359,0,0,1,1.534.909,6.13,6.13,0,0,1,1.05,1.48l.036.077c.012.027.023.049.031.065a2.252,2.252,0,0,0,.3-.083,2.007,2.007,0,0,1,.2-.058,4.583,4.583,0,0,1,.869-.087,3.621,3.621,0,0,1,2.9,1.446c.11.136.253.342.39.542s.262.381.37.518a2.684,2.684,0,0,1,.222.212,2.19,2.19,0,0,0,.917.246c.134.016.261.032.381.056a6.115,6.115,0,0,1,1.651.542,3.291,3.291,0,0,1,.7.488,2.6,2.6,0,0,1,.534.687,4.746,4.746,0,0,1,.405,1.313l0,.008.02.1a2.978,2.978,0,0,1,.9.991,4.832,4.832,0,0,1,.307.664,3.813,3.813,0,0,0,.411.822,2.332,2.332,0,0,0,.788.61l0,0,.137.078L77,29.05a5.823,5.823,0,0,1,1.313,1,3.387,3.387,0,0,1,.808,1.432l.029.1c.008.026.018.058.03.1.058.181.146.453.1.514a.029.029,0,0,1-.025.012.071.071,0,0,1-.029-.008,1.372,1.372,0,0,0,.341.105c.064.014.124.027.169.042a2.822,2.822,0,0,1,1.673,1.257,3.789,3.789,0,0,1,.391,1.406v0q.011.078.022.156l.034.222c.009.056.02.119.03.176l.011.059h0c.126.055.251.114.372.177a1.882,1.882,0,0,1,.972,1.613,1.443,1.443,0,0,1-.254.82,2.448,2.448,0,0,1,.288.6,3.229,3.229,0,0,1,.1,1.339,7.637,7.637,0,0,1-.354,1.523c-.024.075-.042.16-.061.249a1.775,1.775,0,0,1-.12.408,1.034,1.034,0,0,1,.243.752,1.8,1.8,0,0,1-.169.579,1.086,1.086,0,0,1-.392.454,9.262,9.262,0,0,1-.883,2.346.93.93,0,0,1-.145.206c.028,1.547-.025,3.125-.077,4.651-.039,1.134-.079,2.306-.084,3.455-.014,2.662.035,5.539.148,8.794.03.854.075,1.729.118,2.575v0c.1,1.991.207,4.05.138,6.065a27.658,27.658,0,0,1-.256,3.006,19.864,19.864,0,0,1-.646,2.957,19.227,19.227,0,0,1-2.593,5.368,20.57,20.57,0,0,1-4.075,4.353,19.665,19.665,0,0,1-11.236,4.305C62.6,92.251,62.243,92.26,61.891,92.26ZM31.667,67.611a.9.9,0,0,1-.435-.117,3.4,3.4,0,0,1-.972-.941,6.463,6.463,0,0,0-.481-.562,7.722,7.722,0,0,0-1.622-1.218,10.6,10.6,0,0,0-3.932-1.2.109.109,0,0,1-.1-.1.176.176,0,0,1,.1-.177,5.441,5.441,0,0,1,1.99-.352,7.5,7.5,0,0,1,2.635.5l.1.041a9.977,9.977,0,0,1,2.159,1.168,3.158,3.158,0,0,1,1.4,1.858.972.972,0,0,1-.208.8A.835.835,0,0,1,31.667,67.611Z" transform="translate(0)"/>
</svg>
