<svg xmlns="http://www.w3.org/2000/svg" width="40" height="40" viewBox="0 0 40 40">
  <path id="Path_27225" data-name="Path 27225" d="M20,40A20,20,0,1,0,0,20,20.005,20.005,0,0,0,20,40ZM36.075,26.933a17.561,17.561,0,0,1-9.142,9.142l-2.792-6.967a10.074,10.074,0,0,0,4.967-4.967ZM13.067,36.075a17.561,17.561,0,0,1-9.142-9.142l6.967-2.792a10.074,10.074,0,0,0,4.967,4.967ZM36.075,13.067l-6.967,2.792a10.074,10.074,0,0,0-4.967-4.967l2.792-6.967A17.561,17.561,0,0,1,36.075,13.067ZM15.858,10.892a10.074,10.074,0,0,0-4.967,4.967L3.925,13.067a17.561,17.561,0,0,1,9.142-9.142ZM20,27.5A7.5,7.5,0,1,1,27.5,20,7.5,7.5,0,0,1,20,27.5Z"/>
</svg>
