<svg xmlns="http://www.w3.org/2000/svg" width="86.175" height="85.571" viewBox="0 0 86.175 85.571">
  <path id="_Ink" data-name="ðŸ– Ink" d="M56.392,85.571c-.81,0-1.675-.048-2.72-.152A41.275,41.275,0,0,1,47.129,84.3l-.344-.091a9.6,9.6,0,0,1-2.587-.989,3.075,3.075,0,0,1-1-1,4.062,4.062,0,0,1-.5-1.329,1,1,0,0,1,.19-.822.818.818,0,0,1,.633-.311h.109c.095,0,.2,0,.317-.011l.1-.007h0a.055.055,0,0,1,.017,0c.03,0,.06-.011.088-.018s.054-.012.082-.017a3.118,3.118,0,0,1,.515-.043,4.08,4.08,0,0,1,1.316.246l.077.026a30.406,30.406,0,0,0,3.113.927c1.056.241,2.176.445,3.327.606l.111.014.034.005.017,0a.021.021,0,0,1,.01,0l.329.041c.26.031.522.058.775.085h0c.474.047.955.085,1.431.112.276.016.556.023.831.023a14.851,14.851,0,0,0,5.6-1.1,16.9,16.9,0,0,0,4.8-2.989,19.927,19.927,0,0,0,6.009-9.723,20.478,20.478,0,0,0,.659-4.215,30.987,30.987,0,0,0-.076-4.211,2.013,2.013,0,0,1-.112-.68c0-.133.007-.265.015-.387-.147-1.438-.355-2.9-.556-4.315-.179-1.259-.364-2.561-.506-3.844a72.133,72.133,0,0,1-.477-9.592,39.913,39.913,0,0,1,.426-4.717l.08-.563a5.489,5.489,0,0,1-2.672-1.357,5.489,5.489,0,0,1-2.727.732,4.839,4.839,0,0,1-2.549-.7,6.067,6.067,0,0,1-3.187.892,5.5,5.5,0,0,1-2.867-.766,4.984,4.984,0,0,1-1.334.679,4.7,4.7,0,0,1-1.476.24,4.566,4.566,0,0,1-.975-.106,4.368,4.368,0,0,1-1.714-.812,4.981,4.981,0,0,1-.862.077c-.081,0-.163,0-.244-.006l-.076.043a5.622,5.622,0,0,1-2.613.713l-.148,0A6.547,6.547,0,0,1,46.4,34.6a6.081,6.081,0,0,1-2.387.851,5.521,5.521,0,0,1-.688.043,5.275,5.275,0,0,1-2.95-.871,7.49,7.49,0,0,1-3.7.964,7.707,7.707,0,0,1-2.583-.442,5.806,5.806,0,0,1-1.682,1.8,3.766,3.766,0,0,1,.119,1.35,5.491,5.491,0,0,1-.556,1.99,3.561,3.561,0,0,1,.236,2.292,5.648,5.648,0,0,1-1.808,2.966,5.569,5.569,0,0,1-2.755,4.568,2.275,2.275,0,0,1-.251.125,1.237,1.237,0,0,1-.261.263,3.047,3.047,0,0,1-2.115.749,5.082,5.082,0,0,1-1.93-.4l-.028,0h0l-.047,0H22.96a1.094,1.094,0,0,1-.942-.444,4.419,4.419,0,0,0-.576.067,8.009,8.009,0,0,0-2.108.711,4.735,4.735,0,0,0-1.076.753,4.516,4.516,0,0,0-.777.964,6.2,6.2,0,0,0-.787,2.433,6.636,6.636,0,0,0,.255,2.888,5.609,5.609,0,0,0,.619,1.3,5.334,5.334,0,0,0,.964,1.113,5.029,5.029,0,0,0,1.24.791,5.9,5.9,0,0,0,1.406.433,4.04,4.04,0,0,0,.7.051c.11,0,.222,0,.329,0h.006c.107,0,.217,0,.324,0a3,3,0,0,1,.866.1,1.565,1.565,0,0,1,.752.493.712.712,0,0,1,.179.676,1.555,1.555,0,0,1-1.388,1.157,38.578,38.578,0,0,0,3.13,3.363c.236.222.478.446.712.663l.009.008a37.984,37.984,0,0,1,2.85,2.84,23.448,23.448,0,0,1,1.63,2.077,14.459,14.459,0,0,1,1.305,2.29c.318.713.593,1.454.859,2.172h0c.081.219.165.446.249.669l.064.166c.044.112.091.225.136.334a5.992,5.992,0,0,1,.435,1.338,2.144,2.144,0,0,1,0,.678,2,2,0,0,1-.255.694,1.7,1.7,0,0,1-.505.524,1.266,1.266,0,0,1-.693.235.882.882,0,0,1-.113-.007c-1.469-.188-1.94-1.209-2.365-2.424-.144-.413-.275-.837-.4-1.247-.168-.543-.342-1.1-.546-1.644-.062-.163-.133-.333-.217-.523a2.758,2.758,0,0,1-.741.1,3.287,3.287,0,0,1-1.743-.525,6.007,6.007,0,0,1-2.415.512h-.1a6.064,6.064,0,0,1-1.622-.246,5.69,5.69,0,0,1-1.439-.657l-.042-.011-.01,0h0l-.159-.043a4.807,4.807,0,0,1-1.725.32,4.3,4.3,0,0,1-2.444-.735,4.49,4.49,0,0,1-1.005-.941,4.4,4.4,0,0,1-.641-1.14,4.346,4.346,0,0,1-1.5-.29,3.721,3.721,0,0,1-1.28-.822,4.056,4.056,0,0,1-.8-1.128,4.268,4.268,0,0,1-.384-1.3,4.419,4.419,0,0,1-1.268-.457A4.172,4.172,0,0,1,8.82,68.3a3.855,3.855,0,0,1-.653-1.008,4.259,4.259,0,0,1-.33-1.153A4.562,4.562,0,0,1,6.343,65.4,3.888,3.888,0,0,1,5.26,64.15a3.758,3.758,0,0,1-.437-1.405,3.839,3.839,0,0,1,.114-1.4l-.062-.09a4.115,4.115,0,0,1-1.4-1.152,3.172,3.172,0,0,1-.638-1.734,3.348,3.348,0,0,1,.122-1.138,3.419,3.419,0,0,1,.094-1.213,5.2,5.2,0,0,1-.934-1.232,5.417,5.417,0,0,1-.54-1.442,5.242,5.242,0,0,1-.108-1.531,4.829,4.829,0,0,1,.36-1.5A5.264,5.264,0,0,1,.493,47.475,5.07,5.07,0,0,1,.518,45.9a4.568,4.568,0,0,1,.535-1.487,4.549,4.549,0,0,1-.821-1.491A4.75,4.75,0,0,1,.007,41.19a6.179,6.179,0,0,1,.517-2.128A11.289,11.289,0,0,1,1.6,37.15a3.551,3.551,0,0,1-.7-1.18,3.78,3.78,0,0,1-.219-1.357,4.289,4.289,0,0,1,.492-1.846A6.979,6.979,0,0,1,2.3,31.206a5.571,5.571,0,0,1-.281-1.766A5.709,5.709,0,0,1,2.3,27.718,5.906,5.906,0,0,1,4.28,24.872a3.253,3.253,0,0,1-.4-2.2,3.532,3.532,0,0,1,.847-1.768,7.129,7.129,0,0,1,1.521-1.292,3.232,3.232,0,0,1,.2-2.365,4.059,4.059,0,0,1,1.023-1.319,8.343,8.343,0,0,1,1.384-.955,3.754,3.754,0,0,1,.4-1.319,4.2,4.2,0,0,1,.827-1.106,3.918,3.918,0,0,1,1.122-.761,3.159,3.159,0,0,1,1.287-.283,2.842,2.842,0,0,1,1.385.361,2.425,2.425,0,0,1-.067-1.17,2.958,2.958,0,0,1,.444-1.088A3.551,3.551,0,0,1,15.3,8.576a3.234,3.234,0,0,1,1.382-.5,5.2,5.2,0,0,1,.828-1.55,5.749,5.749,0,0,1,1.27-1.2,5.839,5.839,0,0,1,3.3-1.058,5.156,5.156,0,0,1,1.215.144,5.194,5.194,0,0,1,1.913-1.589,5.518,5.518,0,0,1,2.4-.554,5.3,5.3,0,0,1,1.849.329A8.23,8.23,0,0,1,31.907,1.3,8.473,8.473,0,0,1,34.555.881a9.946,9.946,0,0,1,3.139.526,3.9,3.9,0,0,1,1.6-1.068A5.566,5.566,0,0,1,41.225,0c.112,0,.225,0,.336.01A10.374,10.374,0,0,1,44.42.737a10.076,10.076,0,0,0,2.905.726c.129.006.263.009.4.009a18.452,18.452,0,0,0,2.32-.2h0a18.417,18.417,0,0,1,2.309-.2,7.487,7.487,0,0,1,1.2.09,6.315,6.315,0,0,1,1.871.607,4.782,4.782,0,0,1,1.523,1.207,7.034,7.034,0,0,1,1.936-.271,7.241,7.241,0,0,1,1.665.2A7.472,7.472,0,0,1,64.74,5.62a4.351,4.351,0,0,1,.665-.051,5.094,5.094,0,0,1,2.894.946,4.768,4.768,0,0,1,1.825,2.412,5.92,5.92,0,0,1,2.078.457,6.478,6.478,0,0,1,1.81,1.131A5.788,5.788,0,0,1,76,14.19a4.58,4.58,0,0,1,2.741,2.13,6.414,6.414,0,0,1,.7,3.949,3.675,3.675,0,0,1,1.54,1.533,5.936,5.936,0,0,1,.666,2.189,3.854,3.854,0,0,1,1.31,1.82,4.676,4.676,0,0,1,.2,2.3,2.644,2.644,0,0,1,1.065,1.218,3.936,3.936,0,0,1,.356,1.646c0,.3-.026.6-.051.883a4.346,4.346,0,0,0,.156,2.046,5.188,5.188,0,0,1,.337,1.256,3.972,3.972,0,0,1-.06,1.288l-.019.09c-.031.142-.06.286-.086.438a2.678,2.678,0,0,1,.631.828,4.105,4.105,0,0,1,.415,1.869,5.5,5.5,0,0,1-.363,1.882,3.749,3.749,0,0,1-.119,2.318,4.274,4.274,0,0,1,.609,1.292,4.108,4.108,0,0,1,.138,1.453,4.48,4.48,0,0,1-1.379,2.859,4.838,4.838,0,0,1-.27,2.3,5.181,5.181,0,0,1-1.267,1.956,4.028,4.028,0,0,1-.478,2.739,3.77,3.77,0,0,1-1.39,1.4,4.5,4.5,0,0,1-.22,1.554A4.977,4.977,0,0,1,80,61.35a4.269,4.269,0,0,1-.039,1.514,4.5,4.5,0,0,1-.55,1.42A4.021,4.021,0,0,1,77,66.138a2.158,2.158,0,0,1-.508.072,21.869,21.869,0,0,1-1.377,5.631,23.219,23.219,0,0,1-1.621,3.323,22.935,22.935,0,0,1-2.129,3.019,22.085,22.085,0,0,1-2.593,2.627,20.965,20.965,0,0,1-3.011,2.148,19.509,19.509,0,0,1-3.341,1.552,18.932,18.932,0,0,1-3.573.889A16.771,16.771,0,0,1,56.392,85.571Zm-33.1-27.8a.92.92,0,0,1-.861-.557,6.575,6.575,0,0,0-.823-1.37c-.054.076-.1.155-.159.249l-.051.086-.01.016c-.034.058-.07.117-.1.178a1.231,1.231,0,0,1-.043.156l-.006.019a1.306,1.306,0,0,1-.86.843.823.823,0,0,1-.272.047.913.913,0,0,1-.58-.221,1.212,1.212,0,0,1-.365-.516,1.089,1.089,0,0,1,.161-1.029,2.157,2.157,0,0,1,.864-.687,1.948,1.948,0,0,0-1.762.617.093.093,0,0,1-.069.031.111.111,0,0,1-.108-.1,1.56,1.56,0,0,1,.179-.806,1.953,1.953,0,0,1,.528-.621,2.842,2.842,0,0,1,1.553-.58c.053,0,.107,0,.16,0a3.01,3.01,0,0,1,1.138.228,4.1,4.1,0,0,1,.993.593,8.268,8.268,0,0,1,1.568,1.74.917.917,0,0,1,.083.989A1.373,1.373,0,0,1,23.29,57.771Z" transform="translate(0)"/>
</svg>
