<svg xmlns="http://www.w3.org/2000/svg" width="40" height="26.667" viewBox="0 0 40 26.667">
  <path id="Path_28651" data-name="Path 28651" d="M40,25.667c0,1-2,1.667-4.333,2-1.5-2.833-4.5-5-8-6.5.333-.5.667-.833,1-1.333H30C35.167,19.667,40,22.833,40,25.667Zm-28.667-6H10c-5.167,0-10,3.167-10,6,0,1,2,1.667,4.333,2,1.5-2.833,4.5-5,8-6.5ZM20,21.333a6.667,6.667,0,1,0-6.667-6.667A6.686,6.686,0,0,0,20,21.333ZM20,23c-6.833,0-13.333,4.333-13.333,8.333C6.667,34.667,20,34.667,20,34.667s13.333,0,13.333-3.333C33.333,27.333,26.833,23,20,23Zm9.5-5H30a4.911,4.911,0,0,0,5-5,4.911,4.911,0,0,0-5-5,4.614,4.614,0,0,0-2.167.5A9.9,9.9,0,0,1,30,14.667,10.746,10.746,0,0,1,29.5,18ZM10,18h.5a10.746,10.746,0,0,1-.5-3.333A9.9,9.9,0,0,1,12.167,8.5,4.614,4.614,0,0,0,10,8a4.911,4.911,0,0,0-5,5A4.911,4.911,0,0,0,10,18Z" transform="translate(0 -8)"/>
</svg>
