<svg id="Group_15565" data-name="Group 15565" xmlns="http://www.w3.org/2000/svg" width="40" height="40" viewBox="0 0 40 40">
  <path id="Path_27227" data-name="Path 27227" d="M20.469,15.22a4.756,4.756,0,0,0-4.777,2.722,4.823,4.823,0,0,0,.938,5.452,4.738,4.738,0,0,0,5.413.945,4.81,4.81,0,0,0-1.574-9.119ZM31.955,20a12.9,12.9,0,0,1-.119,1.561l3.37,2.658a.817.817,0,0,1,.183,1.033L32.2,30.808a.8.8,0,0,1-.978.344L27.877,29.8a1.183,1.183,0,0,0-1.129.128,13.423,13.423,0,0,1-1.606.945,1.182,1.182,0,0,0-.66.9l-.5,3.595a.82.82,0,0,1-.795.689H16.813a.825.825,0,0,1-.795-.664l-.5-3.587a1.208,1.208,0,0,0-.676-.921,11.493,11.493,0,0,1-1.6-.945,1.192,1.192,0,0,0-1.121-.128L8.776,31.176a.809.809,0,0,1-.978-.344L4.611,25.276a.807.807,0,0,1,.183-1.033l2.846-2.25a1.2,1.2,0,0,0,.445-1.057c-.024-.312-.04-.624-.04-.937s.016-.624.04-.929a1.212,1.212,0,0,0-.453-1.049l-2.846-2.25a.815.815,0,0,1-.175-1.025L7.8,9.192a.8.8,0,0,1,.978-.344L12.123,10.2a1.183,1.183,0,0,0,1.129-.128,12.378,12.378,0,0,1,1.606-.937,1.208,1.208,0,0,0,.66-.913l.5-3.595a.82.82,0,0,1,.795-.689h6.375a.825.825,0,0,1,.795.664l.5,3.587a1.208,1.208,0,0,0,.676.921,11.493,11.493,0,0,1,1.6.945,1.192,1.192,0,0,0,1.121.128l3.346-1.361a.809.809,0,0,1,.978.344l3.187,5.556a.807.807,0,0,1-.183,1.033l-2.846,2.25a1.227,1.227,0,0,0-.453,1.057A9.24,9.24,0,0,1,31.955,20Z" transform="translate(0)" fill="none" stroke="#000" stroke-linecap="round" stroke-linejoin="round" stroke-width="3"/>
  <path id="Path_27228" data-name="Path 27228" d="M0,0H40V40H0Z" fill="none"/>
</svg>
