<svg id="Group_15570" data-name="Group 15570" xmlns="http://www.w3.org/2000/svg" width="40" height="40" viewBox="0 0 40 40">
  <path id="Path_27255" data-name="Path 27255" d="M20.364,36A16.18,16.18,0,0,1,4,20,16.18,16.18,0,0,1,20.364,4a16.468,16.468,0,0,1,13.091,6.4H29.02a13.307,13.307,0,0,0-18.106.744,12.591,12.591,0,0,0,0,17.72A13.307,13.307,0,0,0,29.02,29.6h4.435A16.445,16.445,0,0,1,20.364,36Zm11.455-9.6V21.6H18.727V18.4H31.818V13.6L40,20Z"/>
  <path id="Path_27256" data-name="Path 27256" d="M0,0H40V40H0Z" fill="none"/>
</svg>
