<svg id="undraw_empty_cart_co35" xmlns="http://www.w3.org/2000/svg" width="163.701" height="136.656" viewBox="0 0 163.701 136.656">
  <path id="Path_9944" data-name="Path 9944" d="M187.291,747.459c2.271,4.211,7.09,6.019,7.09,6.019s1.138-5.02-1.133-9.231-7.09-6.019-7.09-6.019S185.02,743.248,187.291,747.459Z" transform="translate(-179.684 -617.24)" fill="#2f2e41"/>
  <path id="Path_9945" data-name="Path 9945" d="M161.167,773.446c4.1,2.466,5.678,7.365,5.678,7.365s-5.068.9-9.167-1.566S152,771.88,152,771.88,157.068,770.979,161.167,773.446Z" transform="translate(-152 -644.613)" fill="#4d8d6e"/>
  <rect id="Rectangle_2084" data-name="Rectangle 2084" width="25.578" height="0.365" transform="translate(75.501 6.56)" fill="#f2f2f2"/>
  <rect id="Rectangle_2085" data-name="Rectangle 2085" width="0.365" height="3.38" transform="translate(93.772 6.834)" fill="#f2f2f2"/>
  <rect id="Rectangle_2086" data-name="Rectangle 2086" width="0.365" height="3.38" transform="translate(82.627 6.834)" fill="#f2f2f2"/>
  <rect id="Rectangle_2087" data-name="Rectangle 2087" width="25.578" height="0.365" transform="translate(88.473 24.1)" fill="#f2f2f2"/>
  <rect id="Rectangle_2088" data-name="Rectangle 2088" width="0.365" height="3.38" transform="translate(95.416 20.811)" fill="#f2f2f2"/>
  <rect id="Rectangle_2089" data-name="Rectangle 2089" width="0.365" height="3.38" transform="translate(106.561 20.811)" fill="#f2f2f2"/>
  <rect id="Rectangle_2090" data-name="Rectangle 2090" width="25.578" height="0.365" transform="translate(122.456 32.321)" fill="#f2f2f2"/>
  <rect id="Rectangle_2091" data-name="Rectangle 2091" width="0.365" height="3.38" transform="translate(129.398 29.033)" fill="#f2f2f2"/>
  <rect id="Rectangle_2092" data-name="Rectangle 2092" width="0.365" height="3.38" transform="translate(140.543 29.033)" fill="#f2f2f2"/>
  <rect id="Rectangle_2093" data-name="Rectangle 2093" width="25.578" height="0.365" transform="translate(119.898 117.095)" fill="#f2f2f2"/>
  <rect id="Rectangle_2094" data-name="Rectangle 2094" width="0.365" height="3.38" transform="translate(126.841 113.807)" fill="#f2f2f2"/>
  <rect id="Rectangle_2095" data-name="Rectangle 2095" width="0.365" height="3.38" transform="translate(137.985 113.807)" fill="#f2f2f2"/>
  <rect id="Rectangle_2096" data-name="Rectangle 2096" width="25.578" height="0.365" transform="translate(76.232 58.448)" fill="#f2f2f2"/>
  <rect id="Rectangle_2097" data-name="Rectangle 2097" width="0.365" height="3.38" transform="translate(83.175 55.159)" fill="#f2f2f2"/>
  <rect id="Rectangle_2098" data-name="Rectangle 2098" width="0.365" height="3.38" transform="translate(94.32 55.159)" fill="#f2f2f2"/>
  <rect id="Rectangle_2099" data-name="Rectangle 2099" width="25.578" height="0.365" transform="translate(84.271 102.479)" fill="#f2f2f2"/>
  <rect id="Rectangle_2100" data-name="Rectangle 2100" width="0.365" height="3.38" transform="translate(91.214 99.19)" fill="#f2f2f2"/>
  <rect id="Rectangle_2101" data-name="Rectangle 2101" width="0.365" height="3.38" transform="translate(102.359 99.19)" fill="#f2f2f2"/>
  <rect id="Rectangle_2102" data-name="Rectangle 2102" width="25.578" height="0.365" transform="translate(125.196 89.142)" fill="#f2f2f2"/>
  <rect id="Rectangle_2103" data-name="Rectangle 2103" width="0.365" height="3.38" transform="translate(132.139 85.853)" fill="#f2f2f2"/>
  <rect id="Rectangle_2104" data-name="Rectangle 2104" width="0.365" height="3.38" transform="translate(143.284 85.853)" fill="#f2f2f2"/>
  <path id="Path_9946" data-name="Path 9946" d="M168.535,614.866H125.274v-.311h42.95V599.46H128.911L127,595.482l.281-.135,1.825,3.8h39.429Z" transform="translate(-102.386 -486.576)" fill="#2f2e41"/>
  <circle id="Ellipse_1241" data-name="Ellipse 1241" cx="3.268" cy="3.268" r="3.268" transform="translate(25.378 129.38)" fill="#3f3d56"/>
  <circle id="Ellipse_1242" data-name="Ellipse 1242" cx="3.268" cy="3.268" r="3.268" transform="translate(57.59 129.38)" fill="#3f3d56"/>
  <circle id="Ellipse_1243" data-name="Ellipse 1243" cx="2.023" cy="2.023" r="2.023" transform="translate(96.805 61.22)" fill="#3f3d56"/>
  <path id="Path_9947" data-name="Path 9947" d="M274.8,511.922H226.17l-10.521-34.391h69.983l-.064.2Zm-48.4-.311h48.167l10.64-33.769H216.069Z" transform="translate(-204.02 -404.173)" fill="#2f2e41"/>
  <path id="Path_9948" data-name="Path 9948" d="M134.211,443.516H91.5l-9.241-30.5h61.468l-.056.18Z" transform="translate(-67.231 -337.556)" fill="#f2f2f2"/>
  <path id="Path_9949" data-name="Path 9949" d="M450.119,349.715l-.3-.08,2.054-7.741h11.947v.311H452.111Z" transform="translate(-367.635 -279.429)" fill="#2f2e41"/>
  <rect id="Rectangle_2105" data-name="Rectangle 2105" width="63.086" height="0.311" transform="translate(15.029 83.784)" fill="#2f2e41"/>
  <rect id="Rectangle_2106" data-name="Rectangle 2106" width="55.965" height="0.311" transform="translate(18.537 95.251)" fill="#2f2e41"/>
  <rect id="Rectangle_2107" data-name="Rectangle 2107" width="0.311" height="34.08" transform="translate(46.464 73.514)" fill="#2f2e41"/>
  <rect id="Rectangle_2108" data-name="Rectangle 2108" width="34.152" height="0.311" transform="matrix(0.065, -0.998, 0.998, 0.065, 58.476, 107.583)" fill="#2f2e41"/>
  <rect id="Rectangle_2109" data-name="Rectangle 2109" width="0.311" height="34.152" transform="translate(32.225 73.523) rotate(-3.729)" fill="#2f2e41"/>
  <rect id="Rectangle_2110" data-name="Rectangle 2110" width="163.701" height="0.365" transform="translate(0 136.113)" fill="#2f2e41"/>
  <path id="Path_9950" data-name="Path 9950" d="M747.411,135.565s2.671,7.6,1.027,8.771,5.547,10.72,5.547,10.72l8.629-2.339-4.725-7.991s-.616-7.991-.616-9.161S747.411,135.565,747.411,135.565Z" transform="translate(-638.628 -124.26)" fill="#a0616a"/>
  <path id="Path_9951" data-name="Path 9951" d="M747.411,135.565s2.671,7.6,1.027,8.771,5.547,10.72,5.547,10.72l8.629-2.339-4.725-7.991s-.616-7.991-.616-9.161S747.411,135.565,747.411,135.565Z" transform="translate(-638.628 -124.26)" opacity="0.1"/>
  <path id="Path_9952" data-name="Path 9952" d="M721.323,408.749s-.78,9.746,0,14.813,1.949,19.1,1.949,19.1,0,26.508,4.288,26.9,7.407.78,7.8-.78-1.949-2.339-.78-3.119,1.559-3.508,0-6.627,0-34.694,0-34.694l7.407,19.881s.78,16.373,1.559,18.712-.78,6.627,1.949,7.017,5.847-1.949,7.407-2.729-2.339-.78-1.559-1.169,3.119-1.559,2.339-1.949S752.12,445,752.12,445s-2.144-39.957-4.873-41.516a3.347,3.347,0,0,0-4.483,1.127Z" transform="translate(-617.024 -343.259)" fill="#2f2e41"/>
  <path id="Path_9953" data-name="Path 9953" d="M754.3,758.784V761.9s-3.508,8.477,0,8.477,6.237.878,6.237-.291V759.563Z" transform="translate(-642.987 -634.04)" fill="#2f2e41"/>
  <path id="Path_9954" data-name="Path 9954" d="M859.264,758.754v3.119s3.508,8.477,0,8.477-6.237.879-6.237-.291V759.533Z" transform="translate(-724.948 -634.016)" fill="#2f2e41"/>
  <circle id="Ellipse_1244" data-name="Ellipse 1244" cx="7.017" cy="7.017" r="7.017" transform="translate(107.223 2.924)" fill="#a0616a"/>
  <path id="Path_9955" data-name="Path 9955" d="M762.059,201.9s1.949,5.847,5.068,4.678l3.119-1.169,5.458,37.423s-4.288,6.237-10.525,2.339S762.059,201.9,762.059,201.9Z" transform="translate(-649.963 -178.9)" fill="#fff"/>
  <path id="Path_9956" data-name="Path 9956" d="M795.418,178.933l1.754-3.7s10.33,4.873,11.89,6.432a6.088,6.088,0,0,1,1.559,3.9l-2.729,9.746s.78,21.44.78,22.22,2.729,5.068.78,3.508-2.339-3.119-3.9-.78a28.594,28.594,0,0,1-5.068,5.068Z" transform="translate(-677.864 -157.102)" fill="#3f3d56"/>
  <path id="Path_9957" data-name="Path 9957" d="M839.439,349.122l-1.169,10.915s-7.017,6.237-5.458,6.627a2.157,2.157,0,0,0,2.339-1.169s2.729,2.729,4.288,1.169,5.458-16.373,5.458-16.373Z" transform="translate(-708.242 -299.225)" fill="#a0616a"/>
  <path id="Path_9958" data-name="Path 9958" d="M741.684,76.038a7.8,7.8,0,0,0-4.532.755,6.636,6.636,0,0,0-1.566,1.533c-1.277,1.615-2.381,3.647-1.907,5.65l.551-.215a3.609,3.609,0,0,1-.348,1.546c.078-.226.337.139.268.367l-.607,1.992a1.875,1.875,0,0,1,2.391,1.427c.069-2.313.309-4.966,2.186-6.32a7.56,7.56,0,0,1,3.3-1.077,6.631,6.631,0,0,1,3.2.016,2.3,2.3,0,0,1,1.654,2.443,1.088,1.088,0,0,1,1.227.6,3.175,3.175,0,0,1,.251,1.453c.5.354,1.07-.349,1.274-.926a8.364,8.364,0,0,0,.646-4.215,3.215,3.215,0,0,0-2.85-2.772,1,1,0,0,0,.26-.7l-1.186-.1a1.31,1.31,0,0,0,.783-.413C746.2,77.607,742.453,76.066,741.684,76.038Z" transform="translate(-627.294 -76.014)" fill="#2f2e41"/>
  <path id="Path_9959" data-name="Path 9959" d="M704.665,176s-3.173-3.11-4.315-2.919-2.7,2.919-2.7,2.919-9.356,3.119-8.966,6.237,4.678,18.322,4.678,18.322,3.508,18.322.39,20.271,14.813,7.017,15.2,4.678,1.169-25.728,0-29.237S704.665,176,704.665,176Z" transform="translate(-590.619 -155.341)" fill="#3f3d56"/>
  <path id="Path_9960" data-name="Path 9960" d="M850.893,223.236h4.82s3.366,14.813,3.756,16.373,1.17,8.966.78,8.966-8.186-1.559-8.186-.39Z" transform="translate(-723.204 -196.339)" fill="#3f3d56"/>
  <path id="Path_9961" data-name="Path 9961" d="M761.156,316.948H742.7a51.578,51.578,0,0,1,0-23.934h18.453A32.215,32.215,0,0,0,761.156,316.948Z" transform="translate(-633.63 -253.368)" fill="#f2f2f2"/>
  <path id="Path_9962" data-name="Path 9962" d="M707.938,352.844l5.458,2.339s10.525,1.559,10.525-2.729S713.4,350.5,713.4,350.5l-3.509-1.122Z" transform="translate(-606.367 -299.438)" fill="#a0616a"/>
  <path id="Path_9963" data-name="Path 9963" d="M676.162,210.435l-4.678,1.169-3.508,20.661s-1.169,5.458.78,5.847,7.407,3.508,7.407,3.508.78-5.847,2.339-5.847l-3.9-3.119,2.339-13.644Z" transform="translate(-573.422 -185.876)" fill="#3f3d56"/>
  <rect id="Rectangle_2111" data-name="Rectangle 2111" width="25.578" height="0.365" transform="translate(11.008 64.477)" fill="#f2f2f2"/>
  <rect id="Rectangle_2112" data-name="Rectangle 2112" width="0.365" height="3.38" transform="translate(17.95 61.188)" fill="#f2f2f2"/>
  <rect id="Rectangle_2113" data-name="Rectangle 2113" width="0.365" height="3.38" transform="translate(29.095 61.188)" fill="#f2f2f2"/>
  <rect id="Rectangle_2114" data-name="Rectangle 2114" width="25.578" height="0.365" transform="translate(19.96 10.397)" fill="#f2f2f2"/>
  <rect id="Rectangle_2115" data-name="Rectangle 2115" width="0.365" height="3.38" transform="translate(38.23 10.671)" fill="#f2f2f2"/>
  <rect id="Rectangle_2116" data-name="Rectangle 2116" width="0.365" height="3.38" transform="translate(27.085 10.671)" fill="#f2f2f2"/>
  <rect id="Rectangle_2117" data-name="Rectangle 2117" width="25.578" height="0.365" transform="translate(45.721 46.389)" fill="#f2f2f2"/>
  <rect id="Rectangle_2118" data-name="Rectangle 2118" width="0.365" height="3.38" transform="translate(63.991 46.664)" fill="#f2f2f2"/>
  <rect id="Rectangle_2119" data-name="Rectangle 2119" width="0.365" height="3.38" transform="translate(52.846 46.664)" fill="#f2f2f2"/>
  <rect id="Rectangle_2120" data-name="Rectangle 2120" width="25.578" height="0.365" transform="translate(2.238 46.207)" fill="#f2f2f2"/>
  <rect id="Rectangle_2121" data-name="Rectangle 2121" width="0.365" height="3.38" transform="translate(20.508 46.481)" fill="#f2f2f2"/>
  <rect id="Rectangle_2122" data-name="Rectangle 2122" width="0.365" height="3.38" transform="translate(9.363 46.481)" fill="#f2f2f2"/>
  <rect id="Rectangle_2123" data-name="Rectangle 2123" width="25.578" height="0.365" transform="translate(32.932 27.937)" fill="#f2f2f2"/>
  <rect id="Rectangle_2124" data-name="Rectangle 2124" width="0.365" height="3.38" transform="translate(39.874 24.648)" fill="#f2f2f2"/>
  <rect id="Rectangle_2125" data-name="Rectangle 2125" width="0.365" height="3.38" transform="translate(51.019 24.648)" fill="#f2f2f2"/>
</svg>