<svg xmlns="http://www.w3.org/2000/svg" xmlns:xlink="http://www.w3.org/1999/xlink" width="221.337" height="183.241" viewBox="0 0 221.337 183.241">
  <defs>
    <clipPath id="clip-path">
      <rect id="Rectangle_2078" data-name="Rectangle 2078" width="167.082" height="115.229" fill="#639" stroke="#639" stroke-width="1"/>
    </clipPath>
  </defs>
  <g id="Group_17558" data-name="Group 17558" transform="translate(1522 -4333.004)">
    <g id="undraw_map_1r69" transform="translate(-1522 4333.004)">
      <ellipse id="Ellipse_1204" data-name="Ellipse 1204" cx="4.788" cy="11.624" rx="4.788" ry="11.624" transform="translate(196.647 166.802) rotate(-45)" fill="#4d8d6e" opacity="0.1"/>
      <ellipse id="Ellipse_1205" data-name="Ellipse 1205" cx="2.57" cy="3.365" rx="2.57" ry="3.365" transform="translate(206.504 165.664)" fill="#3f3d56"/>
      <ellipse id="Ellipse_1206" data-name="Ellipse 1206" cx="2.57" cy="3.365" rx="2.57" ry="3.365" transform="translate(206.504 161.552)" fill="#3f3d56"/>
      <ellipse id="Ellipse_1207" data-name="Ellipse 1207" cx="2.57" cy="3.365" rx="2.57" ry="3.365" transform="translate(206.504 157.439)" fill="#3f3d56"/>
      <ellipse id="Ellipse_1208" data-name="Ellipse 1208" cx="2.57" cy="3.365" rx="2.57" ry="3.365" transform="translate(206.504 153.327)" fill="#3f3d56"/>
      <ellipse id="Ellipse_1209" data-name="Ellipse 1209" cx="2.57" cy="3.365" rx="2.57" ry="3.365" transform="translate(206.504 149.214)" fill="#3f3d56"/>
      <ellipse id="Ellipse_1210" data-name="Ellipse 1210" cx="2.57" cy="3.365" rx="2.57" ry="3.365" transform="translate(206.504 145.102)" fill="#3f3d56"/>
      <ellipse id="Ellipse_1211" data-name="Ellipse 1211" cx="2.57" cy="3.365" rx="2.57" ry="3.365" transform="translate(206.504 140.989)" fill="#3f3d56"/>
      <path id="Path_9890" data-name="Path 9890" d="M981.068,495.04a12.259,12.259,0,0,0,.958-1.408l-6.755-1.109,7.305.053a12.345,12.345,0,0,0,.24-9.756l-9.8,5.085,9.032-6.644a12.314,12.314,0,1,0-20.335,13.78,12.251,12.251,0,0,0-1.4,2.244l8.766,4.551-9.341-3.138a12.323,12.323,0,0,0,1.986,11.562,12.311,12.311,0,1,0,19.353,0,12.314,12.314,0,0,0,0-15.224Z" transform="translate(-762.373 -378.829)" fill="#4d8d6e"/>
      <path id="Path_9891" data-name="Path 9891" d="M959.1,589.534a12.254,12.254,0,0,0,2.635,7.612,12.311,12.311,0,1,0,19.353,0C982.738,595.053,959.1,588.152,959.1,589.534Z" transform="translate(-762.392 -465.711)" opacity="0.1"/>
      <path id="Path_9892" data-name="Path 9892" d="M254.557,0V172.455l-58.443-8.144L125.069,178.8l-.572.117L67.97,163.353V13.413L126.653,0l64.192,13.413,2.441-.515Z" transform="translate(-51.629)" fill="#639"/>
      <path id="Path_9893" data-name="Path 9893" d="M275.916,39.32v154.3l-52.29-7.286L160.06,199.3l-.513.1L108.97,185.478V51.32l52.508-12,57.432,12,2.184-.46Z" transform="translate(-82.809 -29.902)" fill="#fff"/>
      <path id="Path_9894" data-name="Path 9894" d="M377.4,164.311,306.36,178.8,307.943,0l64.192,13.413,2.441-.515Z" transform="translate(-232.92)" opacity="0.1"/>
      <ellipse id="Ellipse_1212" data-name="Ellipse 1212" cx="8.012" cy="3.301" rx="8.012" ry="3.301" transform="translate(113.981 175.807) rotate(-23.3)" fill="#4d8d6e" opacity="0.1"/>
      <ellipse id="Ellipse_1213" data-name="Ellipse 1213" cx="1.772" cy="2.319" rx="1.772" ry="2.319" transform="translate(120.777 172.045)" fill="#3f3d56"/>
      <ellipse id="Ellipse_1214" data-name="Ellipse 1214" cx="1.772" cy="2.319" rx="1.772" ry="2.319" transform="translate(120.777 169.209)" fill="#3f3d56"/>
      <ellipse id="Ellipse_1215" data-name="Ellipse 1215" cx="1.772" cy="2.319" rx="1.772" ry="2.319" transform="translate(120.777 166.376)" fill="#3f3d56"/>
      <ellipse id="Ellipse_1216" data-name="Ellipse 1216" cx="1.772" cy="2.319" rx="1.772" ry="2.319" transform="translate(120.777 163.542)" fill="#3f3d56"/>
      <ellipse id="Ellipse_1217" data-name="Ellipse 1217" cx="1.772" cy="2.319" rx="1.772" ry="2.319" transform="translate(120.777 160.706)" fill="#3f3d56"/>
      <ellipse id="Ellipse_1218" data-name="Ellipse 1218" cx="1.772" cy="2.319" rx="1.772" ry="2.319" transform="translate(120.777 157.873)" fill="#3f3d56"/>
      <ellipse id="Ellipse_1219" data-name="Ellipse 1219" cx="1.772" cy="2.319" rx="1.772" ry="2.319" transform="translate(120.777 155.039)" fill="#3f3d56"/>
      <ellipse id="Ellipse_1220" data-name="Ellipse 1220" cx="4.788" cy="11.624" rx="4.788" ry="11.624" transform="translate(0 161.533) rotate(-45)" fill="#4d8d6e" opacity="0.1"/>
      <ellipse id="Ellipse_1221" data-name="Ellipse 1221" cx="2.57" cy="3.365" rx="2.57" ry="3.365" transform="translate(9.857 160.395)" fill="#3f3d56"/>
      <ellipse id="Ellipse_1222" data-name="Ellipse 1222" cx="2.57" cy="3.365" rx="2.57" ry="3.365" transform="translate(9.857 156.282)" fill="#3f3d56"/>
      <ellipse id="Ellipse_1223" data-name="Ellipse 1223" cx="2.57" cy="3.365" rx="2.57" ry="3.365" transform="translate(9.857 152.17)" fill="#3f3d56"/>
      <ellipse id="Ellipse_1224" data-name="Ellipse 1224" cx="2.57" cy="3.365" rx="2.57" ry="3.365" transform="translate(9.857 148.057)" fill="#3f3d56"/>
      <ellipse id="Ellipse_1225" data-name="Ellipse 1225" cx="2.57" cy="3.365" rx="2.57" ry="3.365" transform="translate(9.857 143.945)" fill="#3f3d56"/>
      <ellipse id="Ellipse_1226" data-name="Ellipse 1226" cx="2.57" cy="3.365" rx="2.57" ry="3.365" transform="translate(9.857 139.832)" fill="#3f3d56"/>
      <ellipse id="Ellipse_1227" data-name="Ellipse 1227" cx="2.57" cy="3.365" rx="2.57" ry="3.365" transform="translate(9.857 135.72)" fill="#3f3d56"/>
      <path id="Path_9904" data-name="Path 9904" d="M160.068,473.04a12.246,12.246,0,0,0,.958-1.408l-6.754-1.109,7.305.053a12.345,12.345,0,0,0,.24-9.756l-9.8,5.085,9.032-6.644a12.314,12.314,0,1,0-20.335,13.78,12.251,12.251,0,0,0-1.4,2.244l8.766,4.551-9.341-3.138a12.324,12.324,0,0,0,1.986,11.562,12.311,12.311,0,1,0,19.353,0,12.314,12.314,0,0,0,0-15.224Z" transform="translate(-138.019 -362.099)" fill="#4d8d6e"/>
      <path id="Path_9905" data-name="Path 9905" d="M138.1,567.534a12.254,12.254,0,0,0,2.635,7.612,12.311,12.311,0,1,0,19.353,0C161.738,573.052,138.1,566.152,138.1,567.534Z" transform="translate(-138.039 -448.981)" opacity="0.1"/>
      <g id="Mask_Group_31" data-name="Mask Group 31" transform="translate(26.503 33.411)" clip-path="url(#clip-path)">
        <g id="Group_3574" data-name="Group 3574" transform="translate(-5.371 -0.357)" opacity="0.3">
          <path id="Path_9895" data-name="Path 9895" d="M573.35,138l.029,50.18h20.838v-20.6h35.689l4.192-5.375" transform="translate(-457.091 -138)" fill="none" stroke="#444053" stroke-miterlimit="10" stroke-width="3"/>
          <path id="Path_9896" data-name="Path 9896" d="M88.97,197.656h77.485l4.79-2.156h1.916v48.383h33.533l1.437,4.311v21.8H234v26.946" transform="translate(-88.73 -181.728)" fill="none" stroke="#444053" stroke-miterlimit="10" stroke-width="3"/>
          <line id="Line_136" data-name="Line 136" y1="53.054" transform="translate(94.666 62.156)" fill="none" stroke="#444053" stroke-miterlimit="10" stroke-width="3"/>
          <line id="Line_137" data-name="Line 137" x1="82.34" transform="translate(94.666 100.996)" fill="none" stroke="#444053" stroke-miterlimit="10" stroke-width="3"/>
          <line id="Line_138" data-name="Line 138" y2="115.209" transform="translate(156.383)" fill="none" stroke="#444053" stroke-miterlimit="10" stroke-width="3"/>
          <line id="Line_139" data-name="Line 139" x2="177.006" transform="translate(0 90.812)" fill="none" stroke="#444053" stroke-miterlimit="10" stroke-width="3"/>
          <line id="Line_140" data-name="Line 140" y1="115.209" transform="translate(21.542)" fill="none" stroke="#444053" stroke-miterlimit="10" stroke-width="3"/>
          <line id="Line_141" data-name="Line 141" y2="115.209" transform="translate(62.687)" fill="none" stroke="#444053" stroke-miterlimit="10" stroke-width="3"/>
          <line id="Line_142" data-name="Line 142" x2="136.886" y2="0.479" transform="translate(0.24 29.102)" fill="none" stroke="#444053" stroke-miterlimit="10" stroke-width="3"/>
          <line id="Line_143" data-name="Line 143" y2="115.001" transform="translate(40.079 0.208)" fill="none" stroke="#444053" stroke-miterlimit="10" stroke-width="3"/>
          <path id="Path_9897" data-name="Path 9897" d="M87.97,370.82h62.687l31.978,35.047" transform="translate(-87.97 -315.055)" fill="none" stroke="#444053" stroke-miterlimit="10" stroke-width="3"/>
          <line id="Line_144" data-name="Line 144" y2="62.156" transform="translate(101.593)" fill="none" stroke="#444053" stroke-miterlimit="10" stroke-width="3"/>
          <line id="Line_145" data-name="Line 145" x2="82.34" transform="translate(94.666 73.289)" fill="none" stroke="#444053" stroke-miterlimit="10" stroke-width="3"/>
        </g>
      </g>
      <path id="Path_9902" data-name="Path 9902" d="M616.031,605.517a8.661,8.661,0,0,1-.661-.958l4.656-.766-5.03.038a8.513,8.513,0,0,1-.163-6.723l6.755,3.492-6.228-4.58a8.486,8.486,0,1,1,14.014,9.5,8.507,8.507,0,0,1,.958,1.547l-6.038,3.14,6.443-2.156a8.491,8.491,0,0,1-1.368,7.969,8.486,8.486,0,1,1-13.339,0,8.489,8.489,0,0,1,0-10.493Z" transform="translate(-500.114 -467.558)" fill="#4d8d6e"/>
      <path id="Path_9903" data-name="Path 9903" d="M631.186,670.61a8.45,8.45,0,0,1-1.816,5.248,8.486,8.486,0,1,1-13.339,0C614.894,674.421,631.186,669.666,631.186,670.61Z" transform="translate(-500.114 -527.412)" opacity="0.1"/>
      <path id="Path_9898" data-name="Path 9898" d="M509.162,408.159H484.97V397.62l22.874-.12,1.437,4.072Z" transform="translate(-368.749 -302.291)" fill="#639"/>
    </g>
    <path id="Path_9906" data-name="Path 9906" d="M632.031,287.15a13.241,13.241,0,0,0-13.241,13.241c0,7.313,13.241,31.071,13.241,31.071s13.241-23.748,13.241-31.071A13.241,13.241,0,0,0,632.031,287.15Zm0,18.889a5.825,5.825,0,1,1,5.825-5.825,5.825,5.825,0,0,1-5.825,5.825Z" transform="translate(-2025.594 4098.112)" fill="#3c6c55"/>
    <path id="Path_9907" data-name="Path 9907" d="M632.031,295.15a13.241,13.241,0,0,0-13.241,13.241c0,7.313,13.241,31.071,13.241,31.071s13.241-23.748,13.241-31.071A13.241,13.241,0,0,0,632.031,295.15Zm0,18.889a5.825,5.825,0,1,1,5.825-5.825,5.825,5.825,0,0,1-5.825,5.825Z" transform="translate(-2025.594 4091.028)" fill="red"/>
  </g>
</svg>